<?xml version="1.0" encoding="UTF-8"?>
<svg width="57px" height="57px" viewBox="0 0 57 57" version="1.1" xmlns="http://www.w3.org/2000/svg" xmlns:xlink="http://www.w3.org/1999/xlink">
    <title>appleid_account_head </title>
    <g id="appleid_account_head-" stroke="none" stroke-width="1" fill="none" fill-rule="evenodd">
        <g id="appleid-account-head-" fill="#8E8E93" fill-rule="nonzero">
            <path d="M28.5,57 C44.0997009,57 57,44.0997009 57,28.5 C57,12.8718843 44.0997009,0 28.4715852,0 C12.8718843,0 0,12.8718843 0,28.5 C0,44.0997009 12.9002991,57 28.5,57 Z M46.9688433,44.7230769 C44.3079565,41.1452547 37.4983752,37.5956044 28.4856942,37.5956044 C19.5016248,37.5956044 12.6634318,41.1452547 10.002545,44.6949051 C5.9682973,40.3282717 3.50769231,34.5248751 3.50769231,28.1298701 C3.50769231,14.4947053 14.6376381,3.50769231 28.4570825,3.50769231 C42.3051385,3.50769231 53.463696,14.4947053 53.4923077,28.1298701 C53.4923077,34.5248751 51.0317027,40.3564436 46.9688433,44.7230769 Z M28.0616079,33.3230769 C33.4928343,33.3511604 37.7076923,28.7244202 37.7076923,22.6870885 C37.7076923,17.0165106 33.436259,12.2769231 28.0616079,12.2769231 C22.6869567,12.2769231 18.3872358,17.0165106 18.4153846,22.6870885 C18.443811,28.7244202 22.6303814,33.2947368 28.0616079,33.3230769 Z" id="appleid"></path>
        </g>
    </g>
</svg>